<svg width="96" height="21" viewBox="0 0 96 21" fill="none" xmlns="http://www.w3.org/2000/svg">
<path fill-rule="evenodd" clip-rule="evenodd" d="M0 10.5586C0 15.7789 3.79138 20.1197 8.75 21V13.4164H6.125V10.5H8.75V8.16638C8.75 5.54138 10.4414 4.08362 12.8336 4.08362C13.5914 4.08362 14.4086 4.2 15.1664 4.31638V7H13.825C12.5414 7 12.25 7.64137 12.25 8.45862V10.5H15.05L14.5836 13.4164H12.25V21C17.2086 20.1197 21 15.7798 21 10.5586C21 4.75125 16.275 0 10.5 0C4.725 0 0 4.75125 0 10.5586Z" fill="white"/>
<path d="M60 4.01651C59.2277 4.35727 58.3981 4.58752 57.526 4.69159C58.4259 4.15539 59.0991 3.31147 59.4201 2.3173C58.5746 2.81738 57.6493 3.16939 56.6844 3.35801C56.0355 2.66807 55.176 2.21076 54.2393 2.05709C53.3027 1.90343 52.3413 2.06199 51.5044 2.50817C50.6675 2.95435 50.002 3.66319 49.6111 4.52462C49.2203 5.38606 49.1259 6.35189 49.3428 7.27219C47.6296 7.18653 45.9537 6.74313 44.4238 5.97075C42.8939 5.19837 41.5442 4.11428 40.4622 2.78884C40.0923 3.42432 39.8795 4.16111 39.8795 4.94578C39.8791 5.65217 40.0538 6.34774 40.3881 6.97078C40.7224 7.59382 41.206 8.12505 41.7959 8.51736C41.1117 8.49568 40.4427 8.31159 39.8444 7.98042V8.03568C39.8443 9.02642 40.1885 9.98667 40.8185 10.7535C41.4484 11.5203 42.3254 12.0465 43.3006 12.2427C42.666 12.4138 42.0006 12.439 41.3547 12.3164C41.6299 13.1689 42.1658 13.9143 42.8876 14.4484C43.6093 14.9825 44.4807 15.2785 45.3797 15.2949C43.8535 16.4879 41.9687 17.1351 40.0285 17.1322C39.6848 17.1323 39.3413 17.1123 39 17.0724C40.9695 18.3334 43.2621 19.0026 45.6035 19C53.5296 19 57.8626 12.4629 57.8626 6.79328C57.8626 6.60908 57.858 6.42304 57.8497 6.23884C58.6925 5.63189 59.42 4.8803 59.9982 4.01927L60 4.01651Z" fill="white"/>
<path fill-rule="evenodd" clip-rule="evenodd" d="M78 3.00382C78 2.60498 78.1584 2.22248 78.4405 1.94046C78.7225 1.65844 79.105 1.5 79.5038 1.5H94.4945C94.6922 1.49968 94.888 1.53834 95.0707 1.61378C95.2533 1.68922 95.4194 1.79996 95.5592 1.93964C95.699 2.07933 95.81 2.24522 95.8856 2.42783C95.9612 2.61044 96.0001 2.80617 96 3.00382V17.9945C96.0002 18.1922 95.9614 18.388 95.8859 18.5707C95.8104 18.7534 95.6996 18.9194 95.5598 19.0593C95.4201 19.1991 95.2541 19.31 95.0715 19.3856C94.8888 19.4612 94.6931 19.5001 94.4954 19.5H79.5038C79.3063 19.5 79.1106 19.4611 78.9281 19.3855C78.7456 19.3098 78.5798 19.199 78.4402 19.0593C78.3005 18.9195 78.1898 18.7536 78.1142 18.5711C78.0387 18.3886 77.9999 18.1929 78 17.9954V3.00382ZM85.1247 8.36291H87.5621V9.58691C87.9139 8.88327 88.8139 8.25 90.1664 8.25C92.7592 8.25 93.3736 9.65155 93.3736 12.2231V16.9865H90.7497V12.8089C90.7497 11.3444 90.3979 10.518 89.5045 10.518C88.2649 10.518 87.7495 11.409 87.7495 12.8089V16.9865H85.1247V8.36291ZM80.6247 16.8745H83.2495V8.25H80.6247V16.8745ZM83.625 5.43709C83.6299 5.66182 83.59 5.88528 83.5074 6.09435C83.4248 6.30342 83.3013 6.49389 83.1441 6.65457C82.9869 6.81526 82.7992 6.94293 82.592 7.0301C82.3848 7.11726 82.1623 7.16216 81.9375 7.16216C81.7127 7.16216 81.4902 7.11726 81.283 7.0301C81.0758 6.94293 80.8881 6.81526 80.7309 6.65457C80.5737 6.49389 80.4502 6.30342 80.3676 6.09435C80.285 5.88528 80.2451 5.66182 80.25 5.43709C80.2597 4.99597 80.4418 4.57619 80.7572 4.26765C81.0726 3.95911 81.4963 3.78634 81.9375 3.78634C82.3787 3.78634 82.8024 3.95911 83.1178 4.26765C83.4332 4.57619 83.6153 4.99597 83.625 5.43709Z" fill="white"/>
</svg>
