<svg width="12" height="13" viewBox="0 0 12 13" fill="none" xmlns="http://www.w3.org/2000/svg">
<path d="M6 0.8125C2.85918 0.8125 0.3125 3.35918 0.3125 6.5C0.3125 9.64082 2.85918 12.1875 6 12.1875C9.14082 12.1875 11.6875 9.64082 11.6875 6.5C11.6875 3.35918 9.14082 0.8125 6 0.8125ZM6 11.2227C3.39238 11.2227 1.27734 9.10762 1.27734 6.5C1.27734 3.89238 3.39238 1.77734 6 1.77734C8.60762 1.77734 10.7227 3.89238 10.7227 6.5C10.7227 9.10762 8.60762 11.2227 6 11.2227ZM6.07109 4.45986C6.74395 4.45986 7.20098 4.88897 7.25176 5.51865C7.25557 5.57197 7.3 5.6126 7.35332 5.6126H8.07314C8.10615 5.6126 8.13281 5.58594 8.13281 5.55293C8.13281 4.45225 7.26445 3.68164 6.06729 3.68164C4.67207 3.68164 3.86719 4.62363 3.86719 6.18008V6.84404C3.86719 8.38906 4.67207 9.31836 6.06729 9.31836C7.26064 9.31836 8.13281 8.57187 8.13281 7.52324C8.13281 7.49023 8.10615 7.46357 8.07314 7.46357H7.35205C7.29873 7.46357 7.25557 7.5042 7.25049 7.55625C7.19717 8.1415 6.74141 8.54395 6.06982 8.54395C5.24082 8.54395 4.77363 7.93584 4.77363 6.84785V6.18008C4.7749 5.07559 5.24336 4.45986 6.07109 4.45986Z" fill="white"/>
</svg>
