<svg width="60" height="60" viewBox="0 0 60 60" fill="none" xmlns="http://www.w3.org/2000/svg">
<circle cx="30" cy="30" r="30" fill="#F4F2F2"/>
<path d="M45.1494 16.2352C45.0526 16.0371 44.8513 15.9114 44.6309 15.9114H32.0073H28.8833H16.2598C16.0393 15.9114 15.8381 16.0371 15.7412 16.2352L10.7255 26.4966H28.8835H32.0075H50.1655L45.1494 16.2352Z" fill="#4671C6"/>
<path d="M49.7805 29.0937H11.1101C10.8976 29.0937 10.7253 28.9215 10.7253 28.709V26.4964H50.1652V28.709C50.1653 28.9215 49.9931 29.0937 49.7805 29.0937Z" fill="#A4C9FF"/>
<path d="M50.1653 26.848H10.7253C10.604 26.848 10.4913 26.7856 10.4272 26.6826C10.363 26.5795 10.3563 26.4511 10.4094 26.3419L15.4251 16.0805C15.5798 15.7641 15.9073 15.5596 16.2596 15.5596H44.6307C44.9829 15.5596 45.3104 15.7641 45.4651 16.0805L50.4809 26.3419C50.5341 26.4509 50.5274 26.5795 50.4631 26.6826C50.3988 26.7856 50.2866 26.848 50.1653 26.848ZM11.2887 26.1448H49.602L44.8337 16.3895C44.7961 16.3125 44.7166 16.2629 44.631 16.2629H16.2598C16.1742 16.2629 16.0947 16.3125 16.0571 16.3895L11.2887 26.1448Z" fill="#3762CC"/>
<path d="M49.7804 29.4453H11.1102C10.704 29.4453 10.3739 29.115 10.3739 28.709V26.4966C10.3739 26.3025 10.5314 26.145 10.7255 26.145H50.1653C50.3594 26.145 50.5169 26.3025 50.5169 26.4966V28.709C50.5169 29.1148 50.1866 29.4453 49.7804 29.4453ZM11.0769 26.848V28.7088C11.0769 28.7271 11.0918 28.742 11.1101 28.742H49.7802C49.7985 28.742 49.8134 28.7271 49.8134 28.7088V26.848H11.0769Z" fill="#3762CC"/>
<path d="M22.8931 23.243V23.4084C22.8931 24.0625 23.4234 24.5929 24.0775 24.5929C24.7315 24.5929 25.2619 24.0625 25.2619 23.4084V19.8577C25.2809 19.8389 25.306 19.8269 25.3347 19.8269H35.5562C35.6089 19.8269 35.6525 19.8659 35.6607 19.918C35.8416 21.0467 36.8181 21.9092 37.9978 21.9092C38.471 21.9092 38.9109 21.77 39.2803 21.5304C39.5789 21.3367 39.9862 21.4193 40.1741 21.7217C40.5824 22.3785 41.3035 22.8198 42.1293 22.8391V24.0384C42.1293 24.7992 42.7034 25.4633 43.4624 25.5126C44.2942 25.5663 44.9858 24.9077 44.9858 24.0875V23.8442C45.3358 24.0381 45.7397 24.1466 46.1702 24.1393C47.3082 24.1202 48.2305 23.2689 48.4474 22.1855C48.4961 21.9421 48.458 21.6888 48.349 21.4657L45.668 15.9817C45.4743 15.5855 45.0719 15.3343 44.6309 15.3343H16.2596C15.8187 15.3343 15.4162 15.5855 15.2227 15.9817L12.7549 21.0301C12.5606 21.4274 12.5995 21.9097 12.8832 22.249C13.317 22.7676 13.9679 23.0975 14.6973 23.0975C14.7154 23.0975 14.7328 23.0952 14.7507 23.0949V25.2341C14.7507 25.8975 15.2619 26.476 15.9249 26.4959C16.611 26.5164 17.1737 25.9664 17.1737 25.2849V24.0694C17.607 24.5449 18.229 24.8451 18.923 24.8451C20.0348 24.8451 20.9677 24.0792 21.2228 23.0462C21.3082 22.7002 21.5954 22.4417 21.9495 22.4012C22.4524 22.3437 22.8931 22.737 22.8931 23.243Z" fill="#E0EBFC"/>
<path d="M15.9629 26.848C15.9467 26.848 15.9305 26.8478 15.9145 26.8473C15.079 26.8223 14.3993 26.0986 14.3993 25.2341V23.4327C13.7062 23.3566 13.0674 23.0168 12.6137 22.4745C12.2472 22.0363 12.1787 21.4088 12.4392 20.8758L14.907 15.8272C15.1578 15.3143 15.6887 14.9827 16.2596 14.9827H44.6309C45.202 14.9827 45.733 15.3143 45.9837 15.8274L48.6645 21.3114C48.809 21.6074 48.8544 21.9423 48.7918 22.2546C48.5367 23.5292 47.4365 24.4696 46.1758 24.4909C45.8829 24.4967 45.5924 24.4533 45.315 24.3661C45.2529 24.7537 45.0635 25.1151 44.7743 25.3863C44.4117 25.7263 43.9371 25.8965 43.4396 25.8634C42.5076 25.8031 41.7776 25.0016 41.7776 24.0386V23.1611C40.995 23.0437 40.3003 22.5911 39.8755 21.9075C39.8366 21.8452 39.7744 21.8016 39.6997 21.7851C39.6223 21.7679 39.5383 21.7825 39.4713 21.8255C39.0322 22.1105 38.5228 22.2609 37.9978 22.2609C36.7251 22.2609 35.6446 21.3968 35.3544 20.1785H25.6133V23.4084C25.6133 24.2554 24.9242 24.9444 24.0775 24.9444C23.2305 24.9444 22.5415 24.2554 22.5415 23.4084V23.2432C22.5415 23.1 22.4826 22.9686 22.3759 22.8734C22.2692 22.7781 22.1326 22.7347 21.9897 22.7509C21.7825 22.7744 21.6156 22.9235 21.5645 23.1307C21.2641 24.3473 20.1781 25.197 18.9236 25.197C18.4282 25.197 17.945 25.0596 17.5257 24.8075V25.2853C17.5257 25.7117 17.3572 26.11 17.0511 26.4071C16.7565 26.6924 16.3717 26.848 15.9629 26.848ZM14.7509 22.7433C14.8424 22.7433 14.9307 22.7792 14.9964 22.8433C15.0641 22.9094 15.1024 23.0003 15.1024 23.0949V25.2341C15.1024 25.7223 15.4761 26.1308 15.9355 26.1445C16.171 26.152 16.3928 26.0656 16.5612 25.9021C16.7296 25.7386 16.8223 25.5194 16.8223 25.2849V24.0694C16.8223 23.9242 16.9116 23.7939 17.0467 23.7416C17.1821 23.6893 17.3357 23.7252 17.4336 23.8326C17.8163 24.2527 18.3593 24.4935 18.9232 24.4935C19.8536 24.4935 20.6589 23.8637 20.8818 22.962C21.0022 22.4742 21.4151 22.1085 21.9099 22.0519C22.2478 22.0133 22.5893 22.1214 22.8438 22.3485C23.0984 22.5758 23.2444 22.9018 23.2444 23.243V23.4083C23.2444 23.8674 23.6181 24.2411 24.0773 24.2411C24.5364 24.2411 24.91 23.8676 24.91 23.4083V19.8577C24.91 19.7636 24.9478 19.6734 25.0147 19.6074C25.101 19.5223 25.2146 19.4753 25.3345 19.4753H35.5558C35.7815 19.4753 35.9713 19.6379 36.0076 19.8621C36.1651 20.8447 37.0018 21.5576 37.9974 21.5576C38.3862 21.5576 38.7633 21.4462 39.0885 21.2354C39.3124 21.0902 39.591 21.0403 39.8526 21.0987C40.1128 21.1569 40.3328 21.3121 40.4721 21.5362C40.8326 22.1161 41.455 22.4717 42.1371 22.4877C42.3279 22.4921 42.4804 22.6482 42.4804 22.8393V24.0386C42.4804 24.6319 42.9216 25.1253 43.4846 25.1619C43.7883 25.1817 44.0738 25.0789 44.2932 24.8732C44.5127 24.6674 44.6338 24.3883 44.6338 24.0875V23.8442C44.6338 23.7198 44.6998 23.6044 44.8068 23.5413C44.9144 23.4781 45.0468 23.4765 45.1556 23.5368C45.463 23.7069 45.8051 23.7917 46.1638 23.788C47.0962 23.7723 47.9113 23.0694 48.102 22.1166C48.1345 21.9546 48.1097 21.7784 48.0324 21.6202L45.3516 16.1362C45.2178 15.8627 44.9348 15.6859 44.6303 15.6859H16.2596C15.9553 15.6859 15.6723 15.8625 15.5385 16.136L13.0707 21.1845C12.9321 21.4685 12.9644 21.7978 13.153 22.0233C13.5373 22.4824 14.1001 22.7458 14.6972 22.7458C14.7157 22.7443 14.7291 22.7435 14.7424 22.7431C14.7454 22.7433 14.748 22.7433 14.7509 22.7433Z" fill="#3762CC"/>
<path d="M48.2412 29.0938H12.6492V46.2054H48.2412V29.0938Z" fill="#F9CFCF"/>
<path d="M48.2414 46.5569H12.6494C12.4553 46.5569 12.2978 46.3994 12.2978 46.2054V29.0938C12.2978 28.8997 12.4553 28.7422 12.6494 28.7422H48.2414C48.4355 28.7422 48.593 28.8997 48.593 29.0938V46.2054C48.593 46.3994 48.4356 46.5569 48.2414 46.5569ZM13.001 45.8538H47.8898V29.4453H13.001V45.8538Z" fill="#3762CC"/>
<path d="M51.0117 48.2539H9.87891C9.58764 48.2539 9.35156 48.0178 9.35156 47.7266V46.7327C9.35156 46.4414 9.58764 46.2054 9.87891 46.2054H51.0117C51.303 46.2054 51.5391 46.4414 51.5391 46.7327V47.7266C51.5391 48.0178 51.303 48.2539 51.0117 48.2539Z" fill="#E0EBFC"/>
<path d="M45.3704 43.286H40.5606C40.1356 43.286 39.7911 42.9414 39.7911 42.5164V36.4562C39.7911 36.0311 40.1356 35.6866 40.5606 35.6866H45.3704C45.7954 35.6866 46.1399 36.0311 46.1399 36.4562V42.5164C46.1399 42.9414 45.7952 43.286 45.3704 43.286Z" fill="#F9A7A7"/>
<path d="M44.9856 42.1317V36.841H40.9454V42.1317H44.9856Z" fill="#A4C9FF"/>
<path d="M20.3302 43.286H15.5203C15.0952 43.286 14.7507 42.9414 14.7507 42.5164V36.4562C14.7507 36.0311 15.0952 35.6866 15.5203 35.6866H20.33C20.755 35.6866 21.0996 36.0311 21.0996 36.4562V42.5164C21.0996 42.9414 20.755 43.286 20.3302 43.286Z" fill="#F9A7A7"/>
<path d="M19.9453 42.1316V36.841H15.9051V42.1316H19.9453Z" fill="#A4C9FF"/>
<path d="M17.9251 42.4834C17.731 42.4834 17.5735 42.3259 17.5735 42.1318V36.841C17.5735 36.6469 17.731 36.4894 17.9251 36.4894C18.1192 36.4894 18.2767 36.6469 18.2767 36.841V42.1318C18.2767 42.3259 18.1193 42.4834 17.9251 42.4834Z" fill="#3762CC"/>
<path d="M19.9454 39.8379H15.905C15.711 39.8379 15.5535 39.6804 15.5535 39.4863C15.5535 39.2922 15.711 39.1347 15.905 39.1347H19.9452C20.1393 39.1347 20.2968 39.2922 20.2968 39.4863C20.2968 39.6804 20.1394 39.8379 19.9454 39.8379Z" fill="#3762CC"/>
<path d="M42.9655 42.4832C42.7714 42.4832 42.6139 42.3257 42.6139 42.1316V36.841C42.6139 36.6469 42.7714 36.4894 42.9655 36.4894C43.1596 36.4894 43.3171 36.6469 43.3171 36.841V42.1316C43.3171 42.3259 43.1596 42.4832 42.9655 42.4832Z" fill="#3762CC"/>
<path d="M44.9856 39.8379H40.9454C40.7514 39.8379 40.5939 39.6804 40.5939 39.4863C40.5939 39.2922 40.7514 39.1347 40.9454 39.1347H44.9856C45.1796 39.1347 45.3371 39.2922 45.3371 39.4863C45.3371 39.6804 45.1796 39.8379 44.9856 39.8379Z" fill="#3762CC"/>
<path d="M20.33 43.6375H15.5204C14.9022 43.6375 14.3993 43.1346 14.3993 42.5164V36.4562C14.3993 35.8379 14.9022 35.335 15.5204 35.335H20.33C20.9482 35.335 21.4511 35.8379 21.4511 36.4562V42.5164C21.4511 43.1346 20.9482 43.6375 20.33 43.6375ZM15.5204 36.0382C15.2898 36.0382 15.1024 36.2257 15.1024 36.4562V42.5164C15.1024 42.7469 15.2898 42.9344 15.5204 42.9344H20.33C20.5606 42.9344 20.748 42.7469 20.748 42.5164V36.4562C20.748 36.2257 20.5606 36.0382 20.33 36.0382H15.5204Z" fill="#3762CC"/>
<path d="M19.9454 42.4834H15.905C15.711 42.4834 15.5535 42.3259 15.5535 42.1318V36.841C15.5535 36.6469 15.711 36.4894 15.905 36.4894H19.9452C20.1393 36.4894 20.2968 36.6469 20.2968 36.841V42.1318C20.2969 42.3259 20.1394 42.4834 19.9454 42.4834ZM16.2566 41.7802H19.5936V37.1925H16.2566V41.7802Z" fill="#3762CC"/>
<path d="M45.3702 43.6375H40.5606C39.9424 43.6375 39.4395 43.1346 39.4395 42.5164V36.4562C39.4395 35.8379 39.9424 35.335 40.5606 35.335H45.3702C45.9884 35.335 46.4913 35.8379 46.4913 36.4562V42.5164C46.4913 43.1346 45.9884 43.6375 45.3702 43.6375ZM40.5606 36.0382C40.33 36.0382 40.1426 36.2257 40.1426 36.4562V42.5164C40.1426 42.7469 40.33 42.9344 40.5606 42.9344H45.3702C45.6008 42.9344 45.7882 42.7469 45.7882 42.5164V36.4562C45.7882 36.2257 45.6008 36.0382 45.3702 36.0382H40.5606Z" fill="#3762CC"/>
<path d="M44.9856 42.4834H40.9454C40.7514 42.4834 40.5939 42.3259 40.5939 42.1318V36.841C40.5939 36.6469 40.7514 36.4894 40.9454 36.4894H44.9856C45.1796 36.4894 45.3371 36.6469 45.3371 36.841V42.1318C45.3371 42.3259 45.1796 42.4834 44.9856 42.4834ZM41.2968 41.7802H44.6338V37.1925H41.2968V41.7802Z" fill="#3762CC"/>
<path d="M51.0117 48.6055H9.87891C9.39428 48.6055 9 48.2112 9 47.7266V46.7327C9 46.2481 9.39428 45.8538 9.87891 45.8538H51.0117C51.4963 45.8538 51.8906 46.2481 51.8906 46.7327V47.7266C51.8906 48.2112 51.4963 48.6055 51.0117 48.6055ZM9.87891 46.5569C9.78188 46.5569 9.70312 46.6358 9.70312 46.7327V47.7266C9.70312 47.8234 9.78188 47.9023 9.87891 47.9023H51.0117C51.1087 47.9023 51.1875 47.8234 51.1875 47.7266V46.7327C51.1875 46.6358 51.1087 46.5569 51.0117 46.5569H9.87891Z" fill="#3762CC"/>
<path d="M20.5555 34.3834L19.8617 33.5589C19.7367 33.4104 19.7557 33.1886 19.9044 33.0636L20.4158 32.6335L20.4319 32.6189L30.2287 24.4007C30.3595 24.2911 30.5499 24.2911 30.6807 24.4007L41.0015 33.061C41.1502 33.1858 41.1697 33.4076 41.0449 33.5563L39.6719 35.1925C39.5471 35.3412 39.3252 35.3607 39.1765 35.2357L30.6791 28.1053C30.5483 27.9956 30.3578 27.9956 30.2272 28.1053L21.7297 35.2357C21.581 35.3605 21.3592 35.3412 21.2344 35.1925L20.5555 34.3834Z" fill="#4671C6"/>
<path d="M39.4014 35.6697C39.2365 35.6697 39.0785 35.6124 38.9507 35.505L30.4534 28.3748L21.9558 35.5052C21.6589 35.7544 21.2143 35.7154 20.9653 35.4185L19.5928 33.7853C19.4718 33.6417 19.414 33.4594 19.4302 33.2724C19.4463 33.0854 19.5342 32.9158 19.6778 32.7948L20.1959 32.3582L30.0027 24.1314C30.2643 23.9117 30.6445 23.9117 30.9066 24.1314L41.2274 32.7918C41.3713 32.9126 41.4594 33.082 41.4759 33.2693C41.4923 33.4563 41.4348 33.6387 41.314 33.7825L39.941 35.4187C39.8203 35.5625 39.6508 35.6507 39.4636 35.6673C39.443 35.6688 39.4221 35.6697 39.4014 35.6697ZM30.4532 27.6713C30.6137 27.6713 30.7742 27.7263 30.9052 27.8362L39.4026 34.9666L40.7756 33.3302L30.455 24.67L20.1308 33.3325L20.8246 34.1569C20.8248 34.1569 20.8248 34.1571 20.825 34.1573L21.504 34.9664L30.0015 27.836C30.1322 27.7262 30.2927 27.6713 30.4532 27.6713Z" fill="#3762CC"/>
<path d="M41.3251 31.7263L30.9067 22.9841C30.7804 22.8781 30.6199 22.8196 30.455 22.8196C30.2901 22.8196 30.1294 22.8781 30.0029 22.9841L20.6714 30.8154C20.3806 31.0593 20.2138 31.4171 20.2138 31.7967C20.2138 31.8971 20.2349 31.9941 20.2764 32.085C20.389 32.3313 20.6371 32.4904 20.9081 32.4904C21.0707 32.4904 21.2289 32.4325 21.3541 32.3274L25.8632 28.5339V28.7687C25.8632 29.0874 26.0794 29.3769 26.3918 29.44C26.8216 29.5269 27.199 29.2006 27.199 28.7861V27.4099L30.455 24.6707L34.0873 27.7184C34.2227 27.832 34.3007 27.9995 34.3007 28.1762V29.4279C34.3007 29.7466 34.5169 30.0361 34.8293 30.0992C35.2591 30.1861 35.6365 29.8598 35.6365 29.4455V29.2864C35.6365 29.1802 35.7604 29.1226 35.8418 29.1908L36.4101 29.6677V31.2298C36.4101 31.5485 36.6263 31.8381 36.9387 31.9012C37.3685 31.988 37.7459 31.6617 37.7459 31.2473V30.7885L40.4311 33.0415C40.5468 33.1385 40.693 33.1919 40.8433 33.1919C41.1297 33.1919 41.3842 32.9998 41.4635 32.7208C41.4673 32.7057 41.4712 32.6904 41.4735 32.6785L41.5415 32.3476C41.5891 32.1161 41.5062 31.878 41.3251 31.7263Z" fill="#E0EBFC"/>
<path d="M40.8435 33.5435C40.6109 33.5435 40.3843 33.4609 40.2054 33.3107L38.0626 31.513C38.0079 31.7166 37.8907 31.8996 37.7234 32.0367C37.4855 32.2311 37.1735 32.3072 36.8694 32.2459C36.3997 32.1508 36.0589 31.7236 36.0589 31.2298V29.8315L35.946 29.7369C35.8887 29.9301 35.7743 30.1036 35.614 30.2349C35.3761 30.4293 35.0641 30.5056 34.76 30.4441C34.2903 30.349 33.9495 29.9219 33.9495 29.4281V28.1763C33.9495 28.1034 33.9173 28.0348 33.8616 27.9881L30.4557 25.1302L27.5509 27.5738V28.7863C27.5509 29.0934 27.4147 29.381 27.1767 29.5756C26.9388 29.77 26.627 29.8464 26.3227 29.7847C26.0016 29.7197 25.7405 29.4995 25.6076 29.2087L21.5805 32.5965C21.392 32.7549 21.1533 32.8421 20.9083 32.8421C20.5 32.8421 20.1266 32.6023 19.957 32.2313C19.8942 32.0942 19.8624 31.9479 19.8624 31.7967C19.8624 31.3128 20.0749 30.857 20.4455 30.5461L29.7768 22.7148C30.1576 22.3963 30.7542 22.3968 31.1328 22.7148L41.5512 31.457C41.8314 31.6918 41.9597 32.0602 41.886 32.4183L41.818 32.7491C41.8157 32.7616 41.8101 32.7855 41.8039 32.8091C41.6804 33.2446 41.2863 33.5435 40.8435 33.5435ZM37.746 30.4369C37.8271 30.4369 37.9074 30.465 37.9719 30.5192L40.6571 32.7721C40.7097 32.8161 40.7758 32.8405 40.8435 32.8405C40.9734 32.8405 41.0894 32.7519 41.1254 32.6248L41.1971 32.277C41.2186 32.1722 41.181 32.0645 41.0991 31.9957L30.6807 23.2536C30.5543 23.1474 30.3553 23.1476 30.2284 23.2538L20.8972 31.0848C20.6863 31.2618 20.5652 31.5213 20.5652 31.7969C20.5652 31.8465 20.5755 31.8943 20.5961 31.9391C20.6515 32.0606 20.7742 32.1392 20.9079 32.1392C20.9877 32.1392 21.0658 32.1105 21.1278 32.0587L25.6368 28.2653C25.7414 28.1772 25.8877 28.1579 26.0114 28.2155C26.1353 28.2732 26.2146 28.3975 26.2146 28.5342V28.7691C26.2146 28.9269 26.3208 29.0674 26.4612 29.0959C26.5943 29.1226 26.6873 29.0672 26.7309 29.0317C26.8047 28.9712 26.8471 28.8818 26.8471 28.7865V27.4103C26.8471 27.3066 26.8929 27.2081 26.9724 27.1413L30.2284 24.4021C30.3588 24.2923 30.5497 24.2919 30.6805 24.4018L34.3127 27.4493C34.5284 27.63 34.6519 27.8951 34.6519 28.1763V29.4281C34.6519 29.5859 34.7581 29.7264 34.8985 29.7549C35.0318 29.7818 35.1246 29.7262 35.1682 29.6907C35.242 29.6302 35.2844 29.5408 35.2844 29.4455V29.2864C35.2844 29.0992 35.3899 28.9338 35.5593 28.8545C35.7293 28.7754 35.9235 28.8009 36.0671 28.9213L36.6354 29.398C36.7151 29.4648 36.7611 29.5634 36.7611 29.6673V31.2295C36.7611 31.3873 36.8673 31.5278 37.0077 31.5563C37.141 31.583 37.2338 31.5276 37.2774 31.4921C37.3512 31.4316 37.3936 31.3422 37.3936 31.2469V30.7881C37.3936 30.6515 37.4727 30.5272 37.5964 30.4694C37.645 30.4476 37.6956 30.4369 37.746 30.4369Z" fill="#3762CC"/>
<path d="M30.6793 28.1053C30.5485 27.9956 30.3579 27.9956 30.2273 28.1053L23.2012 34.0012V46.2054H37.6896V33.9933L36.9285 33.3491L30.6793 28.1053Z" fill="#A4C9FF"/>
<path d="M37.6894 46.5569H23.2012C23.0071 46.5569 22.8496 46.3994 22.8496 46.2054V34.0012C22.8496 33.8973 22.8957 33.7987 22.9753 33.7319L30.0015 27.836C30.263 27.6165 30.6434 27.6165 30.9052 27.8359C30.9053 27.8359 30.9053 27.836 30.9053 27.836L37.1544 33.0798L37.9167 33.7251C37.9956 33.7919 38.0412 33.8899 38.0412 33.9933V46.2054C38.041 46.3994 37.8835 46.5569 37.6894 46.5569ZM23.5527 45.8538H37.3379V34.1564L36.7012 33.6175L30.4532 28.3746L23.5527 34.1652V45.8538Z" fill="#3762CC"/>
<path d="M34.2932 46.2054H26.5975V38.0584C26.5975 35.9334 28.3201 34.2106 30.4453 34.2106C32.5703 34.2106 34.2932 35.9332 34.2932 38.0584V46.2054Z" fill="#4671C6"/>
<path d="M28.3611 40.927C28.7684 40.927 29.0986 40.5968 29.0986 40.1894C29.0986 39.7821 28.7684 39.4518 28.3611 39.4518C27.9537 39.4518 27.6235 39.7821 27.6235 40.1894C27.6235 40.5968 27.9537 40.927 28.3611 40.927Z" fill="#F9CFCF"/>
<path d="M34.2932 46.5569H26.5975C26.4034 46.5569 26.2459 46.3994 26.2459 46.2054V38.0584C26.2459 35.7429 28.1297 33.859 30.4453 33.859C32.7609 33.859 34.6447 35.7429 34.6447 38.0584V46.2054C34.6447 46.3994 34.4872 46.5569 34.2932 46.5569ZM26.949 45.8538H33.9414V38.0584C33.9414 36.1306 32.3729 34.5621 30.4451 34.5621C28.5173 34.5621 26.9488 36.1305 26.9488 38.0584V45.8538H26.949Z" fill="#3762CC"/>
<path d="M23.3594 17.1202L22.9488 16.6323C22.8118 16.4697 22.8327 16.2269 22.9955 16.09L23.2595 15.868L23.271 15.8574L30.1955 10.0487C30.3386 9.92866 30.5471 9.92866 30.6902 10.0487L37.8877 16.088C38.0505 16.2246 38.0717 16.4674 37.9352 16.6301L37.1239 17.5969C36.9874 17.7597 36.7446 17.781 36.5818 17.6444L30.6891 12.6997C30.546 12.5796 30.3376 12.5796 30.1945 12.6997L24.3018 17.6444C24.139 17.781 23.8962 17.7597 23.7596 17.5969L23.3594 17.1202Z" fill="#4671C6"/>
<path d="M36.8279 18.0862C36.6555 18.0862 36.4897 18.0262 36.3558 17.9141L30.4632 12.9693C30.4506 12.9588 30.4327 12.9588 30.4204 12.9693L24.5278 17.9141C24.2169 18.1748 23.7516 18.1343 23.4905 17.8232L22.68 16.8587C22.5533 16.7082 22.493 16.5175 22.5098 16.3213C22.5267 16.1253 22.6188 15.9478 22.7693 15.821L23.0335 15.5989L29.97 9.77944C30.2442 9.54934 30.6425 9.54952 30.9164 9.77944L38.1138 15.8188C38.4249 16.0796 38.4657 16.5449 38.205 16.856L37.3936 17.8228C37.2672 17.9735 37.0897 18.0659 36.8937 18.083C36.8715 18.0851 36.8496 18.0862 36.8279 18.0862ZM30.4427 10.3103C30.4351 10.3103 30.4276 10.3129 30.4214 10.318L23.2216 16.3591C23.2077 16.3709 23.2058 16.3918 23.2177 16.4059L23.6283 16.8938C23.6285 16.8938 23.6285 16.894 23.6287 16.8942L24.0289 17.3711C24.0407 17.3853 24.062 17.3867 24.0759 17.3751L29.9684 12.4306C30.2426 12.2007 30.6406 12.2003 30.9152 12.4306L36.8075 17.3751C36.8193 17.3851 36.8443 17.383 36.8543 17.3713L37.6657 16.4045C37.6773 16.3906 37.6757 16.3695 37.6617 16.3577L30.4643 10.3184C30.458 10.3129 30.4504 10.3103 30.4427 10.3103Z" fill="#3762CC"/>
<path d="M39.3782 15.6243L30.9161 8.52383C30.7837 8.41273 30.6155 8.35156 30.4429 8.35156C30.2701 8.35156 30.1018 8.41273 29.9695 8.52383L23.2344 14.1766C23.0073 14.3673 22.8445 14.6312 22.7762 14.9198C22.7041 15.2237 22.7373 15.5468 22.8697 15.8296L22.9161 15.9284L22.9041 16.2035C22.9266 16.1613 22.9567 16.1225 22.9955 16.09L23.2596 15.868L23.271 15.8574L23.7426 15.4617V15.7256C23.7426 16.0946 24.0416 16.3936 24.4106 16.3936C24.7794 16.3936 25.0785 16.0946 25.0785 15.7256V14.3411L25.5006 13.9871V14.3192C25.5006 14.6881 25.7996 14.9871 26.1686 14.9871C26.5373 14.9871 26.8365 14.6881 26.8365 14.3192V12.8669L30.1959 10.0489C30.339 9.92885 30.5474 9.92885 30.6905 10.0489L37.8881 16.0882C38.0508 16.2248 38.0721 16.4676 37.9355 16.6303L37.9299 16.637L38.2776 16.9313C38.4316 17.0617 38.6274 17.1334 38.8292 17.1334C38.8292 17.1334 38.8292 17.1334 38.8294 17.1334C39.0827 17.1334 39.3214 17.0221 39.4842 16.8283C39.6308 16.6535 39.7005 16.4321 39.6809 16.2046C39.6605 15.9771 39.5531 15.7711 39.3782 15.6243Z" fill="#E0EBFC"/>
<path d="M39.3782 15.6243L30.9161 8.52383C30.7837 8.41273 30.6155 8.35156 30.4429 8.35156C30.2701 8.35156 30.1018 8.41273 29.9695 8.52383L23.2344 14.1766C23.0073 14.3673 22.8445 14.6312 22.7762 14.9198C22.7041 15.2237 22.7373 15.5468 22.8697 15.8296L22.9161 15.9284L22.9041 16.2035C22.9266 16.1613 22.9567 16.1225 22.9955 16.09L23.2596 15.868L23.271 15.8574L23.7426 15.4617V15.7256C23.7426 16.0946 24.0416 16.3936 24.4106 16.3936C24.7794 16.3936 25.0785 16.0946 25.0785 15.7256V14.3411L25.5006 13.9871V14.3192C25.5006 14.6881 25.7996 14.9871 26.1686 14.9871C26.5373 14.9871 26.8365 14.6881 26.8365 14.3192V12.8669L30.1959 10.0489C30.339 9.92885 30.5474 9.92885 30.6905 10.0489L37.8881 16.0882C38.0508 16.2248 38.0721 16.4676 37.9355 16.6303L37.9299 16.637L38.2776 16.9313C38.4316 17.0617 38.6274 17.1334 38.8292 17.1334C38.8292 17.1334 38.8292 17.1334 38.8294 17.1334C39.0827 17.1334 39.3214 17.0221 39.4842 16.8283C39.6308 16.6535 39.7005 16.4321 39.6809 16.2046C39.6605 15.9771 39.5531 15.7711 39.3782 15.6243Z" fill="#E0EBFC"/>
<path d="M38.8288 17.485C38.5439 17.485 38.2672 17.3836 38.0498 17.1993L37.7021 16.9053C37.6311 16.845 37.5866 16.759 37.5789 16.666C37.5711 16.5732 37.6007 16.4809 37.661 16.4097C37.6755 16.3923 37.6734 16.3675 37.6615 16.3575L30.4641 10.318C30.4515 10.3075 30.4337 10.3077 30.4214 10.318L27.1877 13.0307V14.3195C27.1877 14.8817 26.7304 15.339 26.1684 15.339C25.8782 15.339 25.6157 15.2171 25.4299 15.0218V15.7258C25.4299 16.2879 24.9725 16.7453 24.4106 16.7453C23.9964 16.7453 23.6391 16.4969 23.4796 16.1413L23.2216 16.3591C23.1442 16.5039 22.9732 16.5811 22.815 16.5377C22.6568 16.4945 22.5457 16.3522 22.5529 16.1882L22.5612 15.9995L22.5515 15.9789C22.3856 15.6242 22.3437 15.2193 22.4341 14.8386C22.5199 14.4768 22.7238 14.1462 23.0085 13.9073L29.7434 8.25471C29.9389 8.09053 30.1873 8 30.4429 8C30.6981 8 30.9465 8.09035 31.1421 8.25453L39.6042 15.355C39.851 15.5621 40.0025 15.853 40.0307 16.174C40.0586 16.4952 39.96 16.8075 39.7531 17.0541C39.5234 17.328 39.1866 17.485 38.8288 17.485ZM38.3599 16.5407L38.5042 16.6629C38.709 16.8363 39.0426 16.807 39.2142 16.6022C39.3005 16.4994 39.3416 16.3689 39.33 16.235C39.3184 16.1014 39.2551 15.9801 39.1521 15.894L30.69 8.79348C30.5517 8.67728 30.3337 8.67746 30.1954 8.79348L23.4606 14.4459C23.291 14.5883 23.1695 14.7855 23.1184 15.001C23.078 15.1719 23.0818 15.3506 23.1286 15.5189L23.5169 15.1926C23.6217 15.1047 23.7676 15.0856 23.8915 15.1434C24.0152 15.2012 24.0943 15.3253 24.0943 15.4621V15.7259C24.0943 15.9003 24.2364 16.0423 24.4107 16.0423C24.5851 16.0423 24.727 15.9003 24.727 15.7259V14.3415C24.727 14.2376 24.773 14.139 24.8527 14.072L25.2747 13.718C25.3796 13.6303 25.5254 13.6113 25.6493 13.6688C25.773 13.7266 25.8521 13.8507 25.8521 13.9875V14.3197C25.8521 14.4941 25.9942 14.6361 26.1686 14.6361C26.3429 14.6361 26.4848 14.4941 26.4848 14.3197V12.8669C26.4848 12.763 26.5308 12.6644 26.6105 12.5976L29.9698 9.77961C30.244 9.54951 30.6422 9.54951 30.9164 9.77979L38.1136 15.8191C38.2642 15.9455 38.3569 16.123 38.3739 16.319C38.3804 16.3943 38.3755 16.4688 38.3599 16.5407Z" fill="#3762CC"/>
<path d="M30.6891 12.6997C30.546 12.5796 30.3376 12.5796 30.1945 12.6997L25.2592 16.8411V22.2923C25.2592 22.5835 25.4953 22.8196 25.7866 22.8196H35.0991C35.3904 22.8196 35.6265 22.5835 35.6265 22.2923V16.8427L30.6891 12.6997Z" fill="#F9CFCF"/>
<path d="M32.7305 21.2608H28.1602C27.9659 21.2608 27.8086 21.1034 27.8086 20.9092V17.8235C27.8086 16.3674 28.9891 15.1868 30.4453 15.1868C31.9015 15.1868 33.082 16.3674 33.082 17.8235V20.9092C33.082 21.1034 32.9247 21.2608 32.7305 21.2608Z" fill="#A4C9FF"/>
<path d="M30.4453 21.6123C30.2512 21.6123 30.0938 21.4548 30.0938 21.2608V15.1868C30.0938 14.9928 30.2512 14.8353 30.4453 14.8353C30.6394 14.8353 30.7969 14.9928 30.7969 15.1868V21.2608C30.7969 21.455 30.6394 21.6123 30.4453 21.6123Z" fill="#3762CC"/>
<path d="M33.082 18.5753H27.8086C27.6145 18.5753 27.457 18.4178 27.457 18.2238C27.457 18.0297 27.6145 17.8722 27.8086 17.8722H33.082C33.2761 17.8722 33.4336 18.0297 33.4336 18.2238C33.4336 18.4178 33.2761 18.5753 33.082 18.5753Z" fill="#3762CC"/>
<path d="M32.7305 21.6123H28.1602C27.7724 21.6123 27.457 21.297 27.457 20.9092V17.8235C27.457 16.1758 28.7975 14.8353 30.4453 14.8353C32.0931 14.8353 33.4336 16.1758 33.4336 17.8235V20.9092C33.4336 21.297 33.1182 21.6123 32.7305 21.6123ZM30.4453 15.5384C29.1853 15.5384 28.1602 16.5635 28.1602 17.8235V20.9092H32.731L32.7305 17.8235C32.7305 16.5635 31.7053 15.5384 30.4453 15.5384Z" fill="#3762CC"/>
<path d="M35.0991 23.1711H25.7864C25.3018 23.1711 24.9075 22.7769 24.9075 22.2922V16.8411C24.9075 16.7372 24.9536 16.6386 25.0332 16.5718L29.9684 12.4304C30.2428 12.2003 30.641 12.2003 30.915 12.4304L35.8523 16.5734C35.932 16.6402 35.978 16.7388 35.978 16.8427V22.2922C35.978 22.7769 35.5836 23.1711 35.0991 23.1711ZM25.6106 17.0049V22.2922C25.6106 22.3891 25.6894 22.468 25.7864 22.468H35.0991C35.1962 22.468 35.2749 22.3891 35.2749 22.2922V17.0067L30.4632 12.969C30.4511 12.9586 30.4328 12.9584 30.4204 12.969L25.6106 17.0049Z" fill="#3762CC"/>
</svg>
