<svg width="60" height="60" viewBox="0 0 60 60" fill="none" xmlns="http://www.w3.org/2000/svg">
<circle cx="30" cy="30" r="30" fill="#F4F2F2"/>
<path d="M31.4879 32.4355L30.1749 34.7097C29.9437 35.1102 30.0808 35.6222 30.4812 35.8534C30.8817 36.0845 31.3937 35.9474 31.6249 35.547L32.8677 33.3945C32.3779 33.117 31.916 32.796 31.4879 32.4355Z" fill="#A4C9FF"/>
<path d="M27.0113 42.3379C26.9876 42.2968 26.9672 42.2546 26.9494 42.2121C26.9479 42.2084 26.9466 42.2047 26.9452 42.201C26.9285 42.1597 26.9138 42.1179 26.9016 42.0757L26.7439 42.1664C26.211 42.4728 25.5328 42.2968 25.2289 41.7733L17.3571 28.2074C17.0533 27.6839 17.2389 27.011 17.7719 26.7047L17.9359 26.6103C17.9203 26.5871 17.9043 26.564 17.8902 26.5394L14.0756 19.9323C14.0474 19.8835 14.0246 19.8334 14.0042 19.7826L12.531 20.6297C9.51106 22.3662 8.45866 26.1789 10.1801 29.1456L20.8268 47.4932C22.5482 50.4599 26.3919 51.4571 29.4116 49.7206L30.8096 48.9167L27.0113 42.3379Z" fill="#6BDDDD"/>
<path d="M32.9591 39.2378L36.4845 45.3441C36.8835 46.0355 36.6468 46.9193 35.9556 47.3185L32.4055 49.3681C31.8525 49.6873 31.1453 49.4978 30.8261 48.9448L27.0115 42.3379C26.6923 41.7849 26.8818 41.0778 27.4348 40.7585L30.9849 38.7089C31.676 38.3097 32.5599 38.5465 32.9591 39.2378Z" fill="#6BDDDD"/>
<path d="M20.0231 16.8322L23.5486 22.9385C23.9476 23.6299 23.7109 24.5137 23.0197 24.9129L19.4696 26.9625C18.9166 27.2817 18.2094 27.0922 17.8902 26.5392L14.0756 19.9323C13.7564 19.3793 13.9459 18.6721 14.4989 18.3529L18.0489 16.3033C18.7401 15.9041 19.6241 16.1411 20.0231 16.8322Z" fill="#6BDDDD"/>
<path d="M31.8296 49.8753C31.6987 49.8753 31.5668 49.858 31.4369 49.8232C31.0479 49.719 30.7227 49.4696 30.5215 49.1206L26.707 42.5137C26.5056 42.165 26.4521 41.7586 26.5564 41.3696C26.6606 40.9806 26.91 40.6554 27.259 40.4541L30.809 38.4045C31.2246 38.1645 31.709 38.1006 32.1726 38.225C32.6361 38.3493 33.0235 38.6465 33.2637 39.0623L36.7891 45.1685C37.0291 45.5843 37.0929 46.0685 36.9686 46.5321C36.8443 46.9958 36.5471 47.3832 36.1314 47.6231L32.5813 49.6728C32.3489 49.8067 32.091 49.8753 31.8296 49.8753ZM31.7055 38.8663C31.516 38.8663 31.329 38.916 31.1604 39.0132L27.6104 41.0628C27.2261 41.2847 27.0939 41.7777 27.3159 42.162L31.1304 48.7689C31.2378 48.955 31.4115 49.0881 31.619 49.1438C31.827 49.1997 32.0437 49.1711 32.2297 49.0635L35.7798 47.0139C36.0327 46.8678 36.2138 46.6319 36.2894 46.3498C36.365 46.0677 36.3261 45.7729 36.18 45.5198L32.6546 39.4135C32.5085 39.1605 32.2726 38.9795 31.9905 38.9039C31.8961 38.8787 31.8005 38.8663 31.7055 38.8663Z" fill="#3762CC"/>
<path d="M18.8939 27.4696C18.7629 27.4696 18.6311 27.4524 18.5012 27.4176C18.1122 27.3134 17.787 27.0639 17.5857 26.715L13.7711 20.1081C13.5697 19.7594 13.5162 19.3529 13.6205 18.9639C13.7247 18.5749 13.9741 18.2497 14.3231 18.0485L17.8731 15.9989C18.2887 15.7587 18.7728 15.6949 19.2367 15.8194C19.7002 15.9437 20.0876 16.2409 20.3277 16.6566L23.8532 22.7629C24.3486 23.6209 24.0536 24.7222 23.1954 25.2175L19.6454 27.2671C19.4132 27.4013 19.1551 27.4696 18.8939 27.4696ZM18.7698 16.4606C18.5803 16.4606 18.3933 16.5104 18.2247 16.6076L14.6746 18.6574C14.4885 18.7648 14.3554 18.9385 14.2997 19.1461C14.244 19.3536 14.2726 19.5706 14.38 19.7567L18.1946 26.3636C18.302 26.5498 18.4757 26.6828 18.6833 26.7386C18.8913 26.7945 19.1078 26.7658 19.294 26.6582L22.8441 24.6086C23.097 24.4626 23.2781 24.2267 23.3536 23.9445C23.4292 23.6624 23.3904 23.3676 23.2443 23.1145L19.7187 17.008C19.5726 16.7551 19.3367 16.574 19.0546 16.4984C18.9603 16.4733 18.8649 16.4606 18.7698 16.4606Z" fill="#3762CC"/>
<path d="M31.8296 49.8753C31.6987 49.8753 31.5668 49.858 31.4369 49.8232C31.0479 49.719 30.7227 49.4696 30.5215 49.1206L26.707 42.5137C26.5056 42.165 26.4521 41.7586 26.5564 41.3696C26.6606 40.9806 26.91 40.6554 27.259 40.4541L30.809 38.4045C31.2246 38.1645 31.709 38.1006 32.1726 38.225C32.6361 38.3493 33.0235 38.6465 33.2637 39.0623L36.7891 45.1685C37.0291 45.5843 37.0929 46.0685 36.9686 46.5321C36.8443 46.9958 36.5471 47.3832 36.1314 47.6231L32.5813 49.6728C32.3489 49.8067 32.091 49.8753 31.8296 49.8753ZM31.7055 38.8663C31.516 38.8663 31.329 38.916 31.1604 39.0132L27.6104 41.0628C27.2261 41.2847 27.0939 41.7777 27.3159 42.162L31.1304 48.7689C31.2378 48.955 31.4115 49.0881 31.619 49.1438C31.827 49.1997 32.0437 49.1711 32.2297 49.0635L35.7798 47.0139C36.0327 46.8678 36.2138 46.6319 36.2894 46.3498C36.365 46.0677 36.3261 45.7729 36.18 45.5198L32.6546 39.4135C32.5085 39.1605 32.2726 38.9795 31.9905 38.9039C31.8961 38.8787 31.8005 38.8663 31.7055 38.8663Z" fill="#3762CC"/>
<path d="M18.8939 27.4696C18.7629 27.4696 18.6311 27.4524 18.5012 27.4176C18.1122 27.3134 17.787 27.0639 17.5857 26.715L13.7711 20.1081C13.5697 19.7594 13.5162 19.3529 13.6205 18.9639C13.7247 18.5749 13.9741 18.2497 14.3231 18.0485L17.8731 15.9989C18.2887 15.7587 18.7728 15.6949 19.2367 15.8194C19.7002 15.9437 20.0876 16.2409 20.3277 16.6566L23.8532 22.7629C24.3486 23.6209 24.0536 24.7222 23.1954 25.2175L19.6454 27.2671C19.4132 27.4013 19.1551 27.4696 18.8939 27.4696ZM18.7698 16.4606C18.5803 16.4606 18.3933 16.5104 18.2247 16.6076L14.6746 18.6574C14.4885 18.7648 14.3554 18.9385 14.2997 19.1461C14.244 19.3536 14.2726 19.5706 14.38 19.7567L18.1946 26.3636C18.302 26.5498 18.4757 26.6828 18.6833 26.7386C18.8913 26.7945 19.1078 26.7658 19.294 26.6582L22.8441 24.6086C23.097 24.4626 23.2781 24.2267 23.3536 23.9445C23.4292 23.6624 23.3904 23.3676 23.2443 23.1145L19.7187 17.008C19.5726 16.7551 19.3367 16.574 19.0546 16.4984C18.9603 16.4733 18.8649 16.4606 18.7698 16.4606Z" fill="#3762CC"/>
<path d="M31.8296 49.8753C31.6987 49.8753 31.5668 49.858 31.4369 49.8232C31.0479 49.719 30.7227 49.4696 30.5215 49.1206L26.707 42.5137C26.5056 42.165 26.4521 41.7586 26.5564 41.3696C26.6606 40.9806 26.91 40.6554 27.259 40.4541L30.809 38.4045C31.2246 38.1645 31.709 38.1006 32.1726 38.225C32.6361 38.3493 33.0235 38.6465 33.2637 39.0623L36.7891 45.1685C37.0291 45.5843 37.0929 46.0685 36.9686 46.5321C36.8443 46.9958 36.5471 47.3832 36.1314 47.6231L32.5813 49.6728C32.3489 49.8067 32.091 49.8753 31.8296 49.8753ZM31.7055 38.8663C31.516 38.8663 31.329 38.916 31.1604 39.0132L27.6104 41.0628C27.2261 41.2847 27.0939 41.7777 27.3159 42.162L31.1304 48.7689C31.2378 48.955 31.4115 49.0881 31.619 49.1438C31.827 49.1997 32.0437 49.1711 32.2297 49.0635L35.7798 47.0139C36.0327 46.8678 36.2138 46.6319 36.2894 46.3498C36.365 46.0677 36.3261 45.7729 36.18 45.5198L32.6546 39.4135C32.5085 39.1605 32.2726 38.9795 31.9905 38.9039C31.8961 38.8787 31.8005 38.8663 31.7055 38.8663Z" fill="#3762CC"/>
<path d="M18.8939 27.4696C18.7629 27.4696 18.6311 27.4524 18.5012 27.4176C18.1122 27.3134 17.787 27.0639 17.5857 26.715L13.7711 20.1081C13.5697 19.7594 13.5162 19.3529 13.6205 18.9639C13.7247 18.5749 13.9741 18.2497 14.3231 18.0485L17.8731 15.9989C18.2887 15.7587 18.7728 15.6949 19.2367 15.8194C19.7002 15.9437 20.0876 16.2409 20.3277 16.6566L23.8532 22.7629C24.3486 23.6209 24.0536 24.7222 23.1954 25.2175L19.6454 27.2671C19.4132 27.4013 19.1551 27.4696 18.8939 27.4696ZM18.7698 16.4606C18.5803 16.4606 18.3933 16.5104 18.2247 16.6076L14.6746 18.6574C14.4885 18.7648 14.3554 18.9385 14.2997 19.1461C14.244 19.3536 14.2726 19.5706 14.38 19.7567L18.1946 26.3636C18.302 26.5498 18.4757 26.6828 18.6833 26.7386C18.8913 26.7945 19.1078 26.7658 19.294 26.6582L22.8441 24.6086C23.097 24.4626 23.2781 24.2267 23.3536 23.9445C23.4292 23.6624 23.3904 23.3676 23.2443 23.1145L19.7187 17.008C19.5726 16.7551 19.3367 16.574 19.0546 16.4984C18.9603 16.4733 18.8649 16.4606 18.7698 16.4606Z" fill="#3762CC"/>
<path d="M26.2338 50.9233C23.9487 50.9233 21.7345 49.7582 20.5225 47.6697L9.87598 29.322C9.00533 27.8214 8.77418 26.0673 9.22524 24.3824C9.68578 22.6619 10.7976 21.221 12.3557 20.3248L13.8289 19.4778C13.9172 19.427 14.0232 19.4169 14.1195 19.4503C14.2157 19.4837 14.2928 19.5572 14.3306 19.6518C14.3477 19.6945 14.3633 19.7277 14.38 19.7565L18.1946 26.3635C18.2034 26.3787 18.2131 26.3923 18.2224 26.4062C18.2774 26.487 18.2984 26.5904 18.2764 26.6857C18.2544 26.7809 18.1961 26.866 18.1113 26.9149L17.9473 27.0093C17.7684 27.1121 17.6409 27.277 17.5884 27.4737C17.5374 27.6641 17.5632 27.8618 17.6615 28.0307L25.5333 41.5967C25.7395 41.9523 26.2043 42.0713 26.569 41.8614L26.7267 41.7707C26.8206 41.7167 26.9343 41.7092 27.0343 41.7498C27.1347 41.7905 27.2105 41.8751 27.2402 41.9793C27.2486 42.0094 27.2592 42.0391 27.2711 42.0685C27.2862 42.1055 27.3001 42.134 27.3161 42.1618C27.3161 42.1618 27.3161 42.1618 27.3161 42.162L31.1144 48.7408C31.1612 48.8216 31.1736 48.9176 31.1496 49.0079C31.1253 49.0981 31.0662 49.1749 30.9852 49.2213L29.587 50.0254C28.5287 50.6339 27.3722 50.9233 26.2338 50.9233ZM13.8638 20.2688L12.7062 20.9345C11.3114 21.7365 10.3163 23.0255 9.90445 24.5642C9.50209 26.0669 9.70811 27.6314 10.4842 28.9691L21.1309 47.3168C22.7528 50.1117 26.3892 51.0533 29.2363 49.4158L30.3292 48.7873L26.7343 42.5608C26.0693 42.8294 25.2908 42.5796 24.9248 41.9494L17.0529 28.3835C16.8605 28.0517 16.8093 27.6639 16.9088 27.2918C16.9958 26.9673 17.1876 26.6879 17.4564 26.4909L13.8638 20.2688Z" fill="#3762CC"/>
<path d="M38.869 15.2608H35.799C35.5678 15.2608 35.3802 15.0734 35.3802 14.8421V14.0746C35.3802 13.8434 35.5676 13.6559 35.799 13.6559H38.869C39.1001 13.6559 39.2877 13.8433 39.2877 14.0746V14.8421C39.2877 15.0732 39.1001 15.2608 38.869 15.2608Z" fill="#4671C6"/>
<path d="M44.5398 18.6039L42.9763 17.2123C42.89 17.1355 42.8822 17.0031 42.959 16.9168L43.8687 15.8948C44.0993 15.6357 44.4963 15.6127 44.7552 15.8433L45.6933 16.6783C45.9524 16.9089 45.9755 17.3058 45.7448 17.5647L44.8352 18.5867C44.7585 18.673 44.6262 18.6808 44.5398 18.6039Z" fill="#6BDDDD"/>
<path d="M30.1283 18.6039L31.6919 17.2123C31.7782 17.1355 31.7859 17.0031 31.7091 16.9168L30.7994 15.8948C30.5688 15.6357 30.1719 15.6127 29.9129 15.8433L28.9748 16.6783C28.7157 16.9089 28.6927 17.3058 28.9233 17.5647L29.833 18.5867C29.9096 18.673 30.042 18.6808 30.1283 18.6039Z" fill="#6BDDDD"/>
<path d="M37.3341 34.5723C42.3543 34.5723 46.4241 30.5025 46.4241 25.4823C46.4241 20.462 42.3543 16.3923 37.3341 16.3923C32.3138 16.3923 28.2441 20.462 28.2441 25.4823C28.2441 30.5025 32.3138 34.5723 37.3341 34.5723Z" fill="#4671C6"/>
<path d="M37.3341 32.8978C41.4296 32.8978 44.7496 29.5777 44.7496 25.4823C44.7496 21.3868 41.4296 18.0668 37.3341 18.0668C33.2386 18.0668 29.9186 21.3868 29.9186 25.4823C29.9186 29.5777 33.2386 32.8978 37.3341 32.8978Z" fill="#A4C9FF"/>
<path d="M37.334 28.1881C38.8284 28.1881 40.0398 26.9766 40.0398 25.4823C40.0398 23.9879 38.8284 22.7765 37.334 22.7765C35.8397 22.7765 34.6282 23.9879 34.6282 25.4823C34.6282 26.9766 35.8397 28.1881 37.334 28.1881Z" fill="#F9A7A7"/>
<path d="M37.3341 20.6235C37.1217 20.6235 36.9495 20.4512 36.9495 20.2389V18.8084C36.9495 18.596 37.1217 18.4238 37.3341 18.4238C37.5464 18.4238 37.7187 18.596 37.7187 18.8084V20.2389C37.7187 20.4512 37.5464 20.6235 37.3341 20.6235Z" fill="#E0EBFC"/>
<path d="M37.3341 32.5408C37.1217 32.5408 36.9495 32.3685 36.9495 32.1561V30.7256C36.9495 30.5133 37.1217 30.341 37.3341 30.341C37.5464 30.341 37.7187 30.5133 37.7187 30.7256V32.1561C37.7187 32.3685 37.5464 32.5408 37.3341 32.5408Z" fill="#E0EBFC"/>
<path d="M44.0079 25.7407H42.5772C42.3649 25.7407 42.1926 25.5684 42.1926 25.3561C42.1926 25.1437 42.3649 24.9715 42.5772 24.9715H44.0079C44.2203 24.9715 44.3925 25.1437 44.3925 25.3561C44.3925 25.5684 44.2203 25.7407 44.0079 25.7407Z" fill="#E0EBFC"/>
<path d="M32.0907 25.7407H30.66C30.4477 25.7407 30.2754 25.5684 30.2754 25.3561C30.2754 25.1437 30.4477 24.9715 30.66 24.9715H32.0907C32.303 24.9715 32.4753 25.1437 32.4753 25.3561C32.4753 25.5684 32.3032 25.7407 32.0907 25.7407Z" fill="#E0EBFC"/>
<path d="M41.964 30.2744C41.8902 30.2744 41.8163 30.2463 41.7601 30.1899L40.7486 29.1782C40.636 29.0656 40.636 28.8829 40.7486 28.7703C40.8613 28.6576 41.0439 28.6576 41.1566 28.7703L42.1681 29.7819C42.2807 29.8945 42.2807 30.0772 42.1681 30.1899C42.1116 30.2463 42.0378 30.2744 41.964 30.2744Z" fill="#E0EBFC"/>
<path d="M33.7156 22.0262C33.6418 22.0262 33.568 21.9981 33.5117 21.9417L32.5003 20.9301C32.3876 20.8174 32.3876 20.6347 32.5003 20.5221C32.613 20.4094 32.7956 20.4094 32.9083 20.5221L33.9197 21.5337C34.0324 21.6464 34.0324 21.829 33.9197 21.9417C33.8633 21.9979 33.7895 22.0262 33.7156 22.0262Z" fill="#E0EBFC"/>
<path d="M32.7042 30.2744C32.6304 30.2744 32.5565 30.2463 32.5003 30.1899C32.3876 30.0772 32.3876 29.8945 32.5003 29.7819L33.5117 28.7703C33.6242 28.6576 33.807 28.6576 33.9197 28.7703C34.0324 28.8829 34.0324 29.0656 33.9197 29.1782L32.9083 30.1899C32.8518 30.2463 32.778 30.2744 32.7042 30.2744Z" fill="#E0EBFC"/>
<path d="M40.9525 22.0262C40.8787 22.0262 40.8049 21.9981 40.7486 21.9417C40.636 21.829 40.636 21.6464 40.7486 21.5337L41.7601 20.5221C41.8728 20.4094 42.0554 20.4094 42.1681 20.5221C42.2807 20.6347 42.2807 20.8174 42.1681 20.9301L41.1566 21.9417C41.1 21.9979 41.0262 22.0262 40.9525 22.0262Z" fill="#E0EBFC"/>
<path d="M30.8978 36.3169C30.6964 36.3169 30.4923 36.2656 30.3054 36.1578C29.7378 35.8302 29.5425 35.1015 29.8702 34.5339L31.1833 32.2597C31.2353 32.1695 31.3246 32.1071 31.4269 32.0892C31.5297 32.0709 31.6345 32.0995 31.7141 32.1665C32.1242 32.5119 32.5705 32.8222 33.0409 33.0888C33.1225 33.1351 33.1821 33.2119 33.2067 33.3022C33.2313 33.3926 33.2188 33.4891 33.1719 33.5703L31.9291 35.7228C31.7096 36.1037 31.309 36.3169 30.8978 36.3169ZM31.587 32.9665L30.4791 34.8855C30.3453 35.1174 30.425 35.4151 30.657 35.5491C30.8892 35.6832 31.1866 35.6032 31.3204 35.3712L32.3893 33.52C32.1125 33.349 31.8442 33.1641 31.587 32.9665Z" fill="#3762CC"/>
<path d="M37.3341 33.2493C33.0514 33.2493 29.567 29.765 29.567 25.4823C29.567 21.1995 33.0514 17.7152 37.3341 17.7152C41.6168 17.7152 45.1012 21.1995 45.1012 25.4823C45.101 29.765 41.6168 33.2493 37.3341 33.2493ZM37.3341 18.4183C33.4391 18.4183 30.2701 21.5871 30.2701 25.4823C30.2701 29.3774 33.4389 32.5462 37.3341 32.5462C41.2292 32.5462 44.398 29.3774 44.398 25.4823C44.3979 21.5871 41.229 18.4183 37.3341 18.4183Z" fill="#3762CC"/>
<path d="M32.109 18.0483L31.5094 17.3747L30.3107 18.4417L30.8831 19.0849C31.2601 18.7047 31.6702 18.3577 32.109 18.0483Z" fill="#E0EBFC"/>
<path d="M43.7851 19.0847L44.3576 18.4415L43.1589 17.3745L42.5593 18.0481C42.9977 18.3577 43.408 18.7047 43.7851 19.0847Z" fill="#E0EBFC"/>
<path d="M30.8831 19.4363C30.8799 19.4363 30.8767 19.4363 30.8736 19.4363C30.7765 19.4336 30.685 19.3911 30.6204 19.3185L30.0481 18.6753C29.9191 18.5303 29.9319 18.3081 30.0771 18.1789L31.2758 17.1119C31.3454 17.0499 31.4368 17.0182 31.5299 17.0237C31.6231 17.0291 31.7101 17.0713 31.7722 17.1409L32.3717 17.8147C32.4382 17.8896 32.4698 17.9892 32.4584 18.0887C32.447 18.1882 32.3935 18.278 32.3118 18.3357C31.8919 18.6319 31.4951 18.9673 31.133 19.3324C31.0666 19.399 30.9767 19.4363 30.8831 19.4363ZM30.8071 18.4704L30.902 18.5769C31.1219 18.3719 31.352 18.1772 31.5902 17.994L31.4807 17.8709L30.8071 18.4704Z" fill="#3762CC"/>
<path d="M43.7851 19.4363C43.6914 19.4363 43.6015 19.399 43.5354 19.3322C43.1732 18.9669 42.7766 18.6317 42.3565 18.3357C42.2746 18.2779 42.2211 18.188 42.2099 18.0886C42.1985 17.9891 42.2299 17.8894 42.2965 17.8145L42.8961 17.1407C42.9582 17.0711 43.0454 17.0289 43.1384 17.0235C43.2319 17.0172 43.3228 17.0499 43.3925 17.1117L44.5912 18.1787C44.7362 18.3078 44.7492 18.5301 44.6202 18.6751L44.0478 19.3183C43.9833 19.3909 43.8918 19.4335 43.7947 19.4361C43.7914 19.4363 43.7882 19.4363 43.7851 19.4363ZM43.0781 17.994C43.3162 18.1771 43.5463 18.3719 43.7662 18.5769L43.8612 18.4704L43.1876 17.8709L43.0781 17.994Z" fill="#3762CC"/>
<path d="M37.3341 16.3923C37.7415 16.3923 38.1427 16.4197 38.5361 16.4719V15.2608H36.1321V16.4719C36.5255 16.4197 36.9266 16.3923 37.3341 16.3923Z" fill="#A4C9FF"/>
<path d="M38.5361 16.8235C38.5208 16.8235 38.5053 16.8224 38.4898 16.8203C37.7247 16.7187 36.9433 16.7187 36.1783 16.8203C36.0778 16.8337 35.9765 16.8029 35.9004 16.7363C35.8241 16.6695 35.7805 16.5731 35.7805 16.4719V15.2606C35.7805 15.0665 35.938 14.909 36.1321 14.909H38.5362C38.7303 14.909 38.8878 15.0665 38.8878 15.2606V16.4719C38.8878 16.5731 38.844 16.6697 38.7679 16.7363C38.7032 16.7929 38.6208 16.8235 38.5361 16.8235ZM37.3341 16.0407C37.6166 16.0407 37.9013 16.0535 38.1845 16.079V15.6122H36.4835V16.079C36.7668 16.0535 37.0516 16.0407 37.3341 16.0407Z" fill="#3762CC"/>
<path d="M44.6786 19.0081C44.546 19.0081 44.4128 18.9615 44.3063 18.8667L44.3061 18.8666L42.7425 17.4749C42.5116 17.2691 42.4908 16.9138 42.6965 16.683L43.606 15.6612C43.9649 15.2578 44.5851 15.2216 44.9888 15.5807L45.927 16.4156C46.1225 16.5897 46.2385 16.8294 46.2536 17.0905C46.2687 17.3517 46.1813 17.6032 46.0073 17.7985L45.0978 18.8203C44.9873 18.9448 44.8333 19.0081 44.6786 19.0081ZM43.3163 17.0442L44.6673 18.2468L45.4824 17.3309C45.5317 17.2757 45.5563 17.2047 45.552 17.1311C45.5478 17.0574 45.5151 16.9897 45.4599 16.9407L44.522 16.1057C44.4079 16.0043 44.233 16.0145 44.1317 16.1284L43.3163 17.0442Z" fill="#3762CC"/>
<path d="M29.9894 19.0081C29.8349 19.0081 29.6809 18.9448 29.5701 18.8205L28.6605 17.7985C28.4866 17.6032 28.3991 17.3517 28.4144 17.0905C28.4295 16.8293 28.5455 16.5897 28.7408 16.4157L29.6789 15.5807C30.0825 15.2217 30.7029 15.258 31.0618 15.6612L31.9715 16.6832C32.177 16.914 32.1564 17.2692 31.9254 17.4749L30.3617 18.8666C30.2552 18.9615 30.1221 19.0081 29.9894 19.0081ZM30.1282 18.604H30.13H30.1282ZM29.8948 18.3412C29.8948 18.3412 29.8946 18.3413 29.8945 18.3413L29.8948 18.3412ZM30.33 16.036C30.2646 16.036 30.1991 16.059 30.1465 16.1057L29.2084 16.9407C29.1534 16.9898 29.1205 17.0574 29.1163 17.1311C29.112 17.2047 29.1367 17.2757 29.1857 17.3308L30.0008 18.2466L31.3519 17.0441L30.5368 16.1284C30.4821 16.0673 30.4063 16.036 30.33 16.036Z" fill="#3762CC"/>
<path d="M38.869 15.6123H35.799C35.3743 15.6123 35.0289 15.2669 35.0289 14.8422V14.0748C35.0289 13.6501 35.3743 13.3045 35.799 13.3045H38.869C39.2937 13.3045 39.6391 13.6501 39.6391 14.0748V14.8422C39.6393 15.2667 39.2937 15.6123 38.869 15.6123ZM35.799 14.0074C35.7621 14.0074 35.732 14.0375 35.732 14.0746V14.842C35.732 14.879 35.7621 14.909 35.799 14.909H38.869C38.9059 14.909 38.936 14.879 38.936 14.842V14.0746C38.936 14.0377 38.9059 14.0074 38.869 14.0074H35.799Z" fill="#3762CC"/>
<path d="M37.334 25.7955C37.0913 25.7955 36.8946 25.5988 36.8946 25.3561V21.5715C36.8946 21.3287 37.0913 21.132 37.334 21.132C37.5768 21.132 37.7735 21.3287 37.7735 21.5715V25.3561C37.7735 25.5986 37.5766 25.7955 37.334 25.7955Z" fill="#4671C6"/>
<path d="M47.9021 15.8159C47.8673 15.2834 47.6486 14.7905 47.2793 14.4212C46.9128 14.0581 46.4153 13.8415 45.8788 13.8116C45.7117 13.8023 45.5457 13.8705 45.4235 13.9988C45.3003 14.1282 45.2397 14.2989 45.2573 14.4671C45.2696 14.5837 45.3184 14.6877 45.3989 14.7682C45.4854 14.8547 45.6034 14.9067 45.7312 14.9148C46.018 14.9329 46.2731 15.0449 46.4728 15.2428C46.6663 15.4364 46.7795 15.6893 46.8001 15.9739C46.8092 16.0998 46.8613 16.2161 46.9465 16.3016C47.0281 16.3831 47.1339 16.4323 47.2522 16.4436C47.4206 16.4596 47.5906 16.3975 47.7189 16.2731C47.8463 16.1495 47.913 15.983 47.9021 15.8159Z" fill="#F9CFCF"/>
<path d="M49.8003 16.063C49.8769 14.8862 49.4849 13.8039 48.6967 13.0157L48.6842 13.0032C47.8874 12.214 46.7972 11.8278 45.614 11.9158C45.4551 11.9276 45.3029 12.0074 45.1966 12.1347C45.0927 12.259 45.0424 12.4179 45.0584 12.571C45.0707 12.6877 45.1196 12.7917 45.1997 12.8721C45.3036 12.976 45.452 13.029 45.6072 13.0176C46.4815 12.9538 47.2866 13.2391 47.8741 13.8209L47.8832 13.8301C48.4643 14.4112 48.7538 15.2101 48.6987 16.0801C48.689 16.2334 48.7422 16.3803 48.8447 16.4828C48.9261 16.5642 49.0318 16.6132 49.1508 16.6247C49.3037 16.6392 49.4621 16.5874 49.5853 16.4824C49.7117 16.375 49.7901 16.2221 49.8003 16.063Z" fill="#F9CFCF"/>
<path d="M51.6754 16.2683C51.8671 14.4919 51.2957 12.7914 50.1074 11.6031L50.0893 11.5852C48.8884 10.3955 47.1761 9.83352 45.3914 10.043C45.0713 10.0807 44.8289 10.3793 44.8619 10.6957C44.8742 10.8135 44.9236 10.9184 45.0045 10.9995C45.1129 11.1079 45.2666 11.1593 45.426 11.1406C46.8909 10.9684 48.2953 11.4284 49.2791 12.4031L49.2939 12.4179C50.2674 13.3913 50.7353 14.786 50.5774 16.2441C50.5604 16.4019 50.6121 16.5538 50.7193 16.661C50.8014 16.7431 50.9081 16.7927 51.0281 16.8041C51.3444 16.834 51.6407 16.5888 51.6754 16.2683Z" fill="#F9A7A7"/>
<path d="M26.7659 15.8159C26.8007 15.2834 27.0194 14.7905 27.3887 14.4212C27.7554 14.0581 28.2527 13.8415 28.7892 13.8116C28.9563 13.8023 29.1223 13.8705 29.2444 13.9988C29.3677 14.1282 29.4283 14.2989 29.4107 14.4671C29.3984 14.5837 29.3496 14.6877 29.2691 14.7682C29.1826 14.8547 29.0646 14.9067 28.9368 14.9148C28.6499 14.9329 28.3949 15.0449 28.1952 15.2428C28.0017 15.4364 27.8885 15.6893 27.8679 15.9739C27.8588 16.0998 27.8067 16.2161 27.7215 16.3016C27.6399 16.3831 27.5341 16.4323 27.4158 16.4436C27.2474 16.4596 27.0774 16.3975 26.9491 16.2731C26.8216 16.1495 26.755 15.983 26.7659 15.8159Z" fill="#F9CFCF"/>
<path d="M24.8677 16.063C24.791 14.8862 25.183 13.8039 25.9712 13.0157L25.9837 13.0032C26.7805 12.214 27.8707 11.8278 29.0539 11.9158C29.2128 11.9276 29.365 12.0074 29.4714 12.1347C29.5753 12.259 29.6255 12.4179 29.6095 12.571C29.5972 12.6877 29.5484 12.7917 29.4682 12.8721C29.3643 12.976 29.216 13.029 29.0607 13.0176C28.1864 12.9538 27.3813 13.2391 26.7939 13.8209L26.7847 13.8301C26.2036 14.4112 25.9141 15.2101 25.9693 16.0801C25.9789 16.2334 25.9257 16.3803 25.8232 16.4828C25.7418 16.5642 25.6362 16.6132 25.5172 16.6247C25.3642 16.6392 25.2059 16.5874 25.0826 16.4824C24.9564 16.375 24.878 16.2221 24.8677 16.063Z" fill="#F9CFCF"/>
<path d="M22.9928 16.2683C22.801 14.4919 23.3725 12.7914 24.5608 11.6031L24.5789 11.5852C25.7798 10.3955 27.4921 9.83352 29.2768 10.043C29.5969 10.0807 29.8393 10.3793 29.8063 10.6957C29.7939 10.8135 29.7446 10.9184 29.6637 10.9995C29.5552 11.1079 29.4016 11.1593 29.2422 11.1406C27.7772 10.9684 26.3729 11.4284 25.389 12.4031L25.3743 12.4179C24.4008 13.3913 23.9329 14.786 24.0907 16.2441C24.1078 16.4019 24.0561 16.5538 23.9489 16.661C23.8668 16.7431 23.7601 16.7927 23.64 16.8041C23.3238 16.834 23.0274 16.5888 22.9928 16.2683Z" fill="#F9A7A7"/>
<path d="M43.1802 32.4355C42.7521 32.796 42.2902 33.117 41.8003 33.3945L43.0431 35.547C43.2742 35.9474 43.7863 36.0847 44.1867 35.8534C44.5871 35.6222 44.7244 35.1102 44.4931 34.7097L43.1802 32.4355Z" fill="#A4C9FF"/>
<path d="M43.7701 36.3176C43.667 36.3176 43.5629 36.3041 43.4606 36.2766C43.1539 36.1944 42.8974 35.9977 42.7387 35.7226L41.4961 33.5703C41.4491 33.4891 41.4366 33.3926 41.4613 33.3023C41.4859 33.2119 41.5455 33.1349 41.627 33.0889C42.0976 32.822 42.5439 32.5118 42.9536 32.1665C43.0333 32.0996 43.138 32.0711 43.2409 32.0892C43.3433 32.1071 43.4326 32.1695 43.4847 32.2597L44.7978 34.534C45.1254 35.1017 44.9303 35.8303 44.3625 36.158C44.1794 36.2636 43.976 36.3176 43.7701 36.3176ZM42.2786 33.52L43.3476 35.3712C43.4815 35.6032 43.7789 35.683 44.0111 35.5489C44.243 35.4151 44.3226 35.1174 44.1889 34.8853L43.0809 32.9663C42.8239 33.1639 42.5557 33.349 42.2786 33.52Z" fill="#3762CC"/>
<path d="M37.3341 34.9237C32.128 34.9237 27.8927 30.6882 27.8927 25.4821C27.8927 20.276 32.1281 16.0407 37.3341 16.0407C42.54 16.0407 46.7755 20.2762 46.7755 25.4821C46.7755 30.688 42.5402 34.9237 37.3341 34.9237ZM37.3341 16.7438C32.5157 16.7438 28.5958 20.6638 28.5958 25.4821C28.5958 30.3004 32.5157 34.2205 37.3341 34.2205C42.1524 34.2205 46.0723 30.3004 46.0723 25.4821C46.0723 20.6638 42.1524 16.7438 37.3341 16.7438Z" fill="#3762CC"/>
</svg>
