<svg width="60" height="60" viewBox="0 0 60 60" fill="none" xmlns="http://www.w3.org/2000/svg">
<circle cx="30" cy="30" r="30" fill="#F4F2F2"/>
<path d="M27.5469 17.4375L19.9332 25.0512C19.4057 25.5786 19.1094 26.2941 19.1094 27.0399V45.5625H30.3594V42.75C32.6894 42.75 34.5781 40.8612 34.5781 38.5312V17.4375H27.5469Z" fill="#F0915A"/>
<path d="M40.9062 36.4219H25.4375C23.8842 36.4219 22.625 35.1627 22.625 33.6094V11.8125C22.625 10.2592 23.8842 9 25.4375 9H40.9062C42.4595 9 43.7188 10.2592 43.7188 11.8125V33.6094C43.7188 35.1627 42.4595 36.4219 40.9062 36.4219Z" fill="#CD3232"/>
<path d="M38.7969 36.4219H25.4375C23.8842 36.4219 22.625 35.1627 22.625 33.6094V11.8125C22.625 10.2592 23.8842 9 25.4375 9H38.7969C40.3502 9 41.6094 10.2592 41.6094 11.8125V33.6094C41.6094 35.1627 40.3502 36.4219 38.7969 36.4219Z" fill="#FF4646"/>
<path d="M29.6562 9H25.4375V36.4219H29.6562V9Z" fill="#463C4B"/>
<path d="M19.9332 30.6762L26.5526 24.0568C27.1017 23.5077 27.9921 23.5077 28.5413 24.0568L28.7825 24.2981C30.43 25.9456 30.43 28.6168 28.7825 30.2643L26.1406 32.9063V38.5313C26.1406 40.8612 24.2519 42.75 21.9219 42.75H19.1094V32.665C19.1094 31.9191 19.4057 31.2037 19.9332 30.6762Z" fill="#FAB991"/>
<path d="M26.375 24.2343C27.2164 25.0757 27.2164 26.4399 26.375 27.2812C26.1809 27.4754 25.8661 27.4754 25.6719 27.2812L24.5001 26.1094L26.375 24.2343Z" fill="#F0915A"/>
<path d="M32.4688 51.1875H17V47.6719C17 46.5069 17.9444 45.5625 19.1094 45.5625H30.3594C31.5244 45.5625 32.4688 46.5069 32.4688 47.6719V51.1875Z" fill="#463C4B"/>
<path d="M26.1406 47.6719H32.4688V51.1875H24.7344V49.0781C24.7344 48.3014 25.3639 47.6719 26.1406 47.6719Z" fill="#32283C"/>
<path d="M36.6875 16.7344C38.2408 16.7344 39.5 15.4752 39.5 13.9219C39.5 12.3686 38.2408 11.1094 36.6875 11.1094C35.1342 11.1094 33.875 12.3686 33.875 13.9219C33.875 15.4752 35.1342 16.7344 36.6875 16.7344Z" fill="#A5C3DC"/>
<path d="M36.6875 20.9531C38.2408 20.9531 39.5 19.6939 39.5 18.1406C39.5 16.5873 38.2408 15.3281 36.6875 15.3281C35.1342 15.3281 33.875 16.5873 33.875 18.1406C33.875 19.6939 35.1342 20.9531 36.6875 20.9531Z" fill="#E6E6EB"/>
</svg>
